<svg xmlns="http://www.w3.org/2000/svg" viewBox="0 0 100 18"><title>google_grey</title><polygon points="15.4 18 9.6 15 3.6 18 4.7 11.5 0 6.9 6.6 6 9.6 0 12.4 6 19 6.9 14.3 11.5 15.4 18" style="fill:#ccc"/><polygon points="35.6 18 29.8 15 23.9 18 25 11.5 20.2 6.9 26.8 6 29.8 0 32.7 6 39.3 6.9 34.5 11.5 35.6 18" style="fill:#ccc"/><polygon points="55.9 18 50.1 15 44.1 18 45.2 11.5 40.5 6.9 47.1 6 50.1 0 52.9 6 59.5 6.9 54.8 11.5 55.9 18" style="fill:#ccc"/><polygon points="76.1 18 70.3 15 64.3 18 65.4 11.5 60.7 6.9 67.3 6 70.3 0 73.2 6 79.8 6.9 75 11.5 76.1 18" style="fill:#ccc"/><polygon points="96.4 18 90.5 15 84.6 18 85.7 11.5 81 6.9 87.6 6 90.5 0 93.4 6 100 6.9 95.3 11.5 96.4 18" style="fill:#ccc"/></svg>