<?xml version="1.0" encoding="utf-8"?>
<svg version="1.1" id="Layer_1" xmlns="http://www.w3.org/2000/svg" xmlns:xlink="http://www.w3.org/1999/xlink" x="0px" y="0px"
	 width="88px" height="16px" viewBox="0 0 88 16" style="enable-background:new 0 0 88 16;" xml:space="preserve">
<style type="text/css">
	.st0{fill:#E7711B;}
</style>
<title>stars_grey</title>
<polygon class="st0" points="13.6,16 8.4,13.3 3.2,16 4.1,10.2 0,6.1 5.8,5.3 8.4,0 10.9,5.3 16.7,6.1 12.6,10.2 "/>
<polygon class="st0" points="31.3,16 26.2,13.3 21,16 22,10.2 17.8,6.1 23.6,5.3 26.2,0 28.8,5.3 34.6,6.1 30.4,10.2 "/>
<polygon class="st0" points="49.2,16 44.1,13.3 38.8,16 39.8,10.2 35.6,6.1 41.4,5.3 44.1,0 46.6,5.3 52.4,6.1 48.2,10.2 "/>
<polygon class="st0" points="67,16 61.9,13.3 56.6,16 57.6,10.2 53.4,6.1 59.2,5.3 61.9,0 64.4,5.3 70.2,6.1 66,10.2 "/>
<polygon class="st0" points="84.8,16 79.6,13.3 74.4,16 75.4,10.2 71.3,6.1 77.1,5.3 79.6,0 82.2,5.3 88,6.1 83.9,10.2 "/>
</svg>
